<svg version="1.0" xmlns="http://www.w3.org/2000/svg" viewBox="0 0 603.000000 900.000000" preserveAspectRatio="xMidYMid meet">                                                                          <g transform="translate(0.000000,900.000000) scale(0.100000,-0.100000)" stroke="none">                                     <path d="M495 8920 c-120 -24 -192 -63 -278 -151 -73 -75 -123 -174 -137 -276                                     -14 -104 -14 -7722 0 -7826 20 -145 108 -275 241 -360 71 -45 149 -67 270 -74                                     55 -3 103 -11 109 -17 5 -7 10 -45 12 -86 l3 -75 488 -3 487 -2 0 74 c0 41 3                                     81 6 90 6 14 135 16 1365 16 l1359 0 10 -26 c6 -14 10 -54 10 -90 l0 -64 488                                     2 487 3 5 85 5 85 40 8 c119 24 173 42 223 73 135 87 221 216 242 361 13 96                                     14 7726 0 7828 -24 183 -156 336 -360 416 -29 12 -436 14 -2535 15 -1375 1                                     -2518 -2 -2540 -6z m2425 -150 c13 -8 15 -324 18 -2722 2 -1492 0 -2737 -3                                     -2766 l-6 -52 -1347 2 -1347 3 -3 2620 c-2 2447 -1 2622 15 2665 50 134 159                                     227 292 250 68 11 2363 12 2381 0z m2542 1 c142 -24 249 -113 301 -251 16 -43                                     17 -218 15 -2665 l-3 -2620 -1335 0 -1335 0 -3 2753 c-1 1887 1 2759 8 2773                                     10 19 33 19 1153 19 655 0 1166 -4 1199 -9z m299 -5711 c19 -10 19 -34 19                                     -1196 l0 -1184 -30 -68 c-38 -82 -96 -143 -175 -185 l-60 -32 -2510 0 -2510 0                                     -60 32 c-79 42 -137 103 -175 185 l-30 68 0 1184 c0 1118 1 1186 18 1195 24                                     15 5486 15 5513 1z"></path>                                     <path d="M742 7362 c-10 -7 -12 -177 -12 -818 l0 -809 611 -5 c336 -3 613 -3                                     615 -1 2 2 4 373 4 823 l0 818 -602 0 c-332 0 -609 -4 -616 -8z m241 -199 c13                                     -21 45 -78 70 -126 l47 -89 0 -139 0 -139 34 -38 34 -37 174 0 c246 0 249 3                                     258 245 l6 155 60 100 c51 84 65 101 89 103 15 2 32 -2 36 -10 14 -22 11                                     -1272 -3 -1286 -9 -9 -120 -12 -439 -12 -235 0 -434 3 -443 6 -14 6 -16 72                                     -16 648 0 354 3 646 7 649 3 4 19 7 35 7 21 0 33 -9 51 -37z"></path>                                     <path d="M2488 7337 c-59 -48 -58 -28 -58 -836 0 -658 2 -745 16 -781 29 -72                                     103 -101 160 -64 56 37 54 7 54 855 l0 781 -34 34 c-42 42 -96 47 -138 11z"></path>                                     <path d="M3409 7367 c-18 -12 -39 -34 -46 -47 -10 -19 -13 -200 -13 -799 0                                     -765 0 -774 21 -807 46 -75 152 -64 190 20 18 39 19 83 19 786 0 840 2 813                                     -71 851 -49 24 -59 24 -100 -4z"></path>                                     <path d="M2203 2870 c-40 -24 -56 -53 -56 -103 0 -30 7 -46 32 -70 l31 -32                                     795 0 794 0 30 29 c16 15 32 39 35 51 10 39 -16 97 -53 122 l-34 23 -771 0                                     c-746 0 -772 -1 -803 -20z"></path>                                     </g>                                     </svg>